<?xml version="1.0" encoding="UTF-8"?>
<svg version="1.1" xmlns="http://www.w3.org/2000/svg" width="820" height="443">
<path d="M0 0 C8.91 0 17.82 0 27 0 C28.12792969 3.09246094 29.25585938 6.18492187 30.41796875 9.37109375 C32.00734173 13.7267344 33.59733981 18.08214669 35.1875 22.4375 C35.60783508 23.58879395 36.02817017 24.74008789 36.46124268 25.92626953 C42.78884511 43.25314695 49.15069735 60.5670687 55.53668213 77.87252808 C68.49823689 113.00444777 68.49823689 113.00444777 73.9631958 128.04077148 C74.52286625 129.57897032 75.08414795 131.11658401 75.64715576 132.65356445 C76.4009472 134.71269643 77.14867491 136.77392056 77.89453125 138.8359375 C78.30550049 139.96563965 78.71646973 141.0953418 79.13989258 142.25927734 C80 145 80 145 80 148 C75.83823915 148.46131878 71.67468049 148.80318309 67.5 149.125 C66.32695312 149.25648438 65.15390625 149.38796875 63.9453125 149.5234375 C55.34773832 150.10304924 55.34773832 150.10304924 51.55126953 146.99584961 C49.48827093 144.42474839 47.72730703 141.80544575 46 139 C45.11804969 137.81695539 44.22180243 136.64427913 43.3046875 135.48828125 C42.50289062 134.44027344 41.70109375 133.39226562 40.875 132.3125 C24.95207145 110.76612905 24.95207145 110.76612905 4 96 C2.33333333 94.33333333 0.66666667 92.66666667 -1 91 C-2.63377642 89.94712186 -4.29181597 88.9272999 -6 88 C-6.2578125 89.29164063 -6.515625 90.58328125 -6.78125 91.9140625 C-12.60504501 117.98878109 -28.53164497 147.48899737 -51.3828125 162.25 C-68.96160451 173.03477383 -89.68028177 176.28086128 -110 173 C-114.30700366 171.79152535 -118.06688121 170.11170343 -122 168 C-123.41345703 167.29810547 -123.41345703 167.29810547 -124.85546875 166.58203125 C-137.0819756 160.29170428 -144.80154111 152.58666347 -152 141 C-152 140.34 -152 139.68 -152 139 C-152.66 138.67 -153.32 138.34 -154 138 C-154.9445805 135.58705293 -155.78028536 133.21502063 -156.5625 130.75 C-156.78357422 130.08097656 -157.00464844 129.41195312 -157.23242188 128.72265625 C-162.35317451 112.97363455 -161.5652345 95.2756117 -154.26953125 80.3125 C-150.24762383 72.61935518 -145.17556619 66.1007756 -139 60 C-138.00613281 58.97326172 -138.00613281 58.97326172 -136.9921875 57.92578125 C-122.11439152 43.52882659 -100.87737648 36.37923555 -80.5 35.6875 C-59.17261734 36.19195846 -38.66944186 41.70064856 -20 52 C-15.49633945 41.61117184 -11.62871281 31.00843713 -7.75 20.375 C-6.79621585 17.76532721 -5.84166656 15.15593955 -4.88580322 12.54702759 C-4.29572985 10.93600224 -3.70693442 9.3245081 -3.11956787 7.7124939 C-1.11143868 2.22287736 -1.11143868 2.22287736 0 0 Z M13 33 C11.4014853 37.47934184 9.81703107 41.96331691 8.24536133 46.45214844 C7.70882927 47.97824084 7.16849049 49.50300049 6.62426758 51.02636719 C5.84230142 53.21730067 5.07418613 55.41267478 4.30859375 57.609375 C4.06282089 58.2886908 3.81704803 58.96800659 3.56382751 59.66790771 C1.90065841 64.35244126 1.90065841 64.35244126 3 69 C4.89366517 70.92302432 6.77767537 72.67773793 8.8125 74.4375 C19.82098 84.2947266 29.22123731 95.13313274 38 107 C39.39507002 104.77957106 39.39507002 104.77957106 37.89526367 101.28588867 C37.32722206 99.66052886 36.75077586 98.03809272 36.16796875 96.41796875 C35.86027557 95.54371246 35.5525824 94.66945618 35.23556519 93.76870728 C34.22638598 90.90583569 33.2069179 88.04673992 32.1875 85.1875 C31.49649702 83.23230368 30.80631381 81.27681744 30.11694336 79.32104492 C28.73458201 75.40026185 27.34919993 71.48056652 25.96191406 67.56152344 C23.28694513 59.99289854 20.67013023 52.4045306 18.0625 44.8125 C17.64444092 43.59780029 17.22638184 42.38310059 16.7956543 41.1315918 C15.86295831 38.42133888 14.93102194 35.71082832 14 33 C13.67 33 13.34 33 13 33 Z M-123.8046875 78.25 C-132.51324874 89.15894504 -135.09034549 101.31616413 -134 115 C-131.63316671 127.21070812 -126.09639471 136.68487629 -116 144 C-105.58444421 150.48439271 -93.96825044 151.37706039 -81.97265625 149.53515625 C-66.96596769 145.89651871 -55.93210995 136.61491843 -47.75 123.6875 C-46.47590403 121.47201733 -45.22528355 119.24284735 -44 117 C-43.44054687 116.01386719 -42.88109375 115.02773437 -42.3046875 114.01171875 C-31.62237479 94.28907742 -31.62237479 94.28907742 -27 73 C-36.8492711 68.44631102 -46.42374154 64.56667736 -57 62 C-58.27617187 61.66162109 -58.27617187 61.66162109 -59.578125 61.31640625 C-82.75483915 56.03240696 -107.14684418 60.68159933 -123.8046875 78.25 Z " fill="#FEB303" transform="translate(160,137)"/>
<path d="M0 0 C11.12720726 9.15695977 16.2409338 21.26591529 18.56640625 35.21875 C18.56640625 41.81875 18.56640625 48.41875 18.56640625 55.21875 C-7.83359375 55.21875 -34.23359375 55.21875 -61.43359375 55.21875 C-59.27546858 64.93031328 -57.17860884 70.90335543 -48.99609375 76.65625 C-40.35407038 81.82143284 -30.41041243 82.9031397 -20.5859375 80.53125 C-13.26197841 77.81448001 -6.95383574 73.63279368 -2.43359375 67.21875 C1.89305535 67.76358729 4.91559433 70.44710822 8.25390625 73.03125 C8.84751953 73.47017578 9.44113281 73.90910156 10.05273438 74.36132812 C12.34995497 76.12418954 14.27112486 77.67635369 15.66796875 80.2421875 C15.42016395 85.06485008 10.74578545 88.92816835 7.56640625 92.21875 C2.59900094 96.37980774 -2.15740673 99.4485434 -8.43359375 101.21875 C-8.76359375 101.87875 -9.09359375 102.53875 -9.43359375 103.21875 C-26.28375602 108.33397783 -44.76001129 107.19802835 -60.43359375 99.21875 C-65.7498892 96.15320786 -70.3059026 92.79267804 -74.43359375 88.21875 C-74.9028125 87.75339844 -75.37203125 87.28804688 -75.85546875 86.80859375 C-87.73473439 74.3476115 -89.02937835 58.17433105 -88.74609375 41.91015625 C-88.16164639 27.12607311 -82.04910981 14.20308856 -71.9140625 3.5078125 C-52.07507424 -14.8002932 -21.57122718 -15.78889181 0 0 Z M-54.87109375 20.59375 C-58.37933596 25.15545872 -60.43359375 29.3600195 -60.43359375 35.21875 C-43.27359375 35.21875 -26.11359375 35.21875 -8.43359375 35.21875 C-9.77199658 25.84993022 -12.39678094 21.75131518 -19.23828125 15.69921875 C-30.36392209 8.19633996 -46.05199568 11.04152397 -54.87109375 20.59375 Z " fill="#0D016B" transform="translate(792.43359375,181.78125)"/>
<path d="M0 0 C12.02683303 10.18993731 18.6464584 23.45130263 20.59375 38.9921875 C21.67583349 55.72583574 17.55236041 71.75033671 7.125 85.0625 C-3.72599252 96.84599969 -18.44829039 103.0218228 -34.1875 104.375 C-50.55800377 105.02746097 -65.79285519 100.95025679 -78.3125 90.125 C-89.9834704 79.14162165 -96.51273312 66.54490259 -97.40625 50.4296875 C-97.91817658 33.46105348 -94.10321912 19.03585988 -82.75 5.9375 C-60.69745997 -17.04474239 -25.40233615 -18.82669289 0 0 Z M-64.1875 23.375 C-70.78636538 33.88898168 -71.85954423 45.52488054 -69.57421875 57.62109375 C-66.9576324 65.7474963 -61.79738859 72.73791398 -54.1875 76.8125 C-43.87006736 81.2256206 -34.66735049 81.44656353 -24.1875 77.375 C-16.80422391 73.53569643 -10.90546165 66.90692292 -7.6875 59.25 C-4.6708158 49.6343191 -4.90227555 39.15457833 -8.875 29.87109375 C-13.45218939 21.16626036 -19.05165137 16.14791684 -28.1875 12.375 C-41.91090048 8.90153062 -54.95374695 12.50957975 -64.1875 23.375 Z " fill="#0D016B" transform="translate(531.1875,183.625)"/>
<path d="M0 0 C8.91 0 17.82 0 27 0 C28.12792969 3.09246094 29.25585938 6.18492187 30.41796875 9.37109375 C32.00734173 13.7267344 33.59733981 18.08214669 35.1875 22.4375 C35.60783508 23.58879395 36.02817017 24.74008789 36.46124268 25.92626953 C42.78884511 43.25314695 49.15069735 60.5670687 55.53668213 77.87252808 C68.49823689 113.00444777 68.49823689 113.00444777 73.9631958 128.04077148 C74.52286625 129.57897032 75.08414795 131.11658401 75.64715576 132.65356445 C76.4009472 134.71269643 77.14867491 136.77392056 77.89453125 138.8359375 C78.30550049 139.96563965 78.71646973 141.0953418 79.13989258 142.25927734 C80 145 80 145 80 148 C75.83823915 148.46131878 71.67468049 148.80318309 67.5 149.125 C66.32695312 149.25648438 65.15390625 149.38796875 63.9453125 149.5234375 C55.34773832 150.10304924 55.34773832 150.10304924 51.55126953 146.99584961 C49.48827093 144.42474839 47.72730703 141.80544575 46 139 C45.11804969 137.81695539 44.22180243 136.64427913 43.3046875 135.48828125 C42.10199219 133.91626953 42.10199219 133.91626953 40.875 132.3125 C35.66501377 125.588212 29.93813694 119.42407529 24.06640625 113.27734375 C21.55189576 110.63246827 19.22715793 107.89475809 17 105 C17.66 105 18.32 105 19 105 C19.33 104.34 19.66 103.68 20 103 C21.32 103 22.64 103 24 103 C24 102.34 24 101.68 24 101 C24.66 101 25.32 101 26 101 C26 99.68 26 98.36 26 97 C26.66 95.68 27.32 94.36 28 93 C31.3 97.29 34.6 101.58 38 106 C37.27296875 103.87949219 36.5459375 101.75898438 35.796875 99.57421875 C28.53125 78.3828125 21.265625 57.19140625 14 36 C11.87554618 39.18668072 10.85071994 42.01519404 9.6171875 45.63671875 C9.39805695 46.27615921 9.17892639 46.91559967 8.95315552 47.57441711 C8.25636368 49.61074701 7.56561146 51.6490668 6.875 53.6875 C6.40274097 55.07109919 5.93008921 56.45456439 5.45703125 57.83789062 C4.30013154 61.22371937 3.14863842 64.61135844 2 68 C-8.5 61 -8.5 61 -19 54 C-18.33855657 48.13275182 -16.27821093 42.91076625 -14.21875 37.421875 C-13.84520386 36.41408997 -13.47165771 35.40630493 -13.08679199 34.36798096 C-11.89620127 31.16010057 -10.69806334 27.95509598 -9.5 24.75 C-8.69354368 22.57829827 -7.88754892 20.40642507 -7.08203125 18.234375 C-4.13562592 10.30585212 -4.13562592 10.30585212 -2.65820312 6.35449219 C-2.36143677 5.55984558 -2.06467041 4.76519897 -1.75891113 3.94647217 C-1 2 -1 2 0 0 Z " fill="#0D016B" transform="translate(160,137)"/>
<path d="M0 0 C1.63671875 2.1875 1.63671875 2.1875 1.578125 4.8828125 C0.40278416 9.00869779 -0.95427003 13.03376859 -2.42578125 17.0625 C-2.70744141 17.84625 -2.98910156 18.63 -3.27929688 19.4375 C-3.96941907 21.35580576 -4.66572441 23.27188519 -5.36328125 25.1875 C-8.61284703 23.67554925 -11.41974407 21.7868226 -14.36328125 19.75 C-22.9111518 14.31250997 -31.38746951 12.3581401 -41.46484375 13.53515625 C-46.21774211 14.60487866 -50.18165285 16.75579218 -54.36328125 19.1875 C-55.07484375 19.48785156 -55.78640625 19.78820312 -56.51953125 20.09765625 C-58.85634383 21.47895013 -59.33639341 22.7073825 -60.36328125 25.1875 C-60.85828125 26.12529297 -60.85828125 26.12529297 -61.36328125 27.08203125 C-66.4553443 36.84844906 -68.08162144 46.57367217 -65.23828125 57.375 C-62.07626165 66.4950843 -57.03037706 72.83301708 -48.36328125 77.1875 C-38.53207446 81.2114358 -30.1958384 81.17966606 -20.36328125 77.1875 C-15.57915142 74.70382409 -11.04998541 72.17056302 -7.36328125 68.1875 C-4.36328125 69.1875 -4.36328125 69.1875 -3.45605469 70.87402344 C-3.2140332 71.59106445 -2.97201172 72.30810547 -2.72265625 73.046875 C-2.32433594 74.22636719 -2.32433594 74.22636719 -1.91796875 75.4296875 C-1.51964844 76.67105469 -1.51964844 76.67105469 -1.11328125 77.9375 C-0.83226562 78.74960937 -0.55125 79.56171875 -0.26171875 80.3984375 C2.36972424 88.39698202 2.36972424 88.39698202 0.63671875 92.1875 C-11.21625115 102.53464795 -26.67099476 105.92883944 -41.94775391 104.91601562 C-53.00794402 103.9407684 -62.19325184 100.37118355 -71.36328125 94.1875 C-71.99878906 93.80980469 -72.63429688 93.43210937 -73.2890625 93.04296875 C-78.80040697 89.58463064 -81.95044825 84.62517172 -85.36328125 79.1875 C-85.84023437 78.45273437 -86.3171875 77.71796875 -86.80859375 76.9609375 C-89.96576378 71.76200482 -91.48320725 66.618302 -92.78515625 60.69140625 C-93.25558264 58.20745574 -93.25558264 58.20745574 -94.36328125 56.1875 C-95.84478158 37.03381721 -91.64395421 20.84623804 -79.17578125 6 C-58.7752091 -15.80396721 -23.57925747 -18.08392639 0 0 Z " fill="#0D016B" transform="translate(331.36328125,182.8125)"/>
<path d="M0 0 C1.65 1.65 3.3 3.3 5 5 C2.36 12.26 -0.28 19.52 -3 27 C-6.0463061 25.47684695 -8.50364647 24.00371751 -11.25 22.0625 C-18.80793128 17.01567293 -25.85583206 15.06157689 -35 15 C-35.99 15.495 -35.99 15.495 -37 16 C-38.175625 16.061875 -39.35125 16.12375 -40.5625 16.1875 C-47.29097236 16.97044951 -52.15725972 21.15725972 -56.8125 25.8125 C-62.95989757 34.77013647 -65.19755777 44.04557959 -63.57421875 54.828125 C-61.79226129 63.35528342 -58.5755236 70.40813946 -51.6015625 75.8828125 C-43.25819361 81.19689669 -34.71632917 83.42338448 -24.921875 81.34765625 C-18.08718786 79.49593287 -13.14330664 77.17891355 -7.90234375 72.390625 C-6 71 -6 71 -2 71 C1.465 81.395 1.465 81.395 5 92 C-7.3611722 102.59529046 -21.28006516 107.76135717 -37.625 106.875 C-50.48808007 105.87570279 -59.56276555 102.83571482 -70 95 C-71.60875 93.8553125 -71.60875 93.8553125 -73.25 92.6875 C-83.61392759 82.55911622 -90.74965718 68.67556362 -91.30078125 54.046875 C-91.5130584 34.9954466 -88.09800535 19.49320254 -74.44921875 5.21875 C-53.34995522 -13.89509638 -23.67798469 -14.4846598 0 0 Z " fill="#0D016B" transform="translate(427,181)"/>
<path d="M0 0 C8.58 0 17.16 0 26 0 C26 7.59 26 15.18 26 23 C33.26 23 40.52 23 48 23 C48 30.26 48 37.52 48 45 C40.74 45 33.48 45 26 45 C26.09720734 52.09869359 26.20011073 59.19684039 26.31738281 66.29516602 C26.35553858 68.70722508 26.39041424 71.11933846 26.421875 73.53149414 C26.46781736 77.00947405 26.52576329 80.48708442 26.5859375 83.96484375 C26.59748871 85.03395493 26.60903992 86.1030661 26.62094116 87.20457458 C26.7567936 94.18107585 27.0550528 101.15842728 30.2578125 107.484375 C32.68943341 109.59977615 34.70316144 109.82286962 37.875 110.25 C38.90367187 110.39953125 39.93234375 110.5490625 40.9921875 110.703125 C43.69153752 110.96955435 46.29138738 111.02173755 49 111 C49.02887236 114.81248426 49.04675492 118.6249407 49.0625 122.4375 C49.07087891 123.52611328 49.07925781 124.61472656 49.08789062 125.73632812 C49.09111328 126.77080078 49.09433594 127.80527344 49.09765625 128.87109375 C49.10289307 129.82943115 49.10812988 130.78776855 49.11352539 131.77514648 C49 134 49 134 48 135 C35.32497224 137.05122587 24.57006487 136.68937079 13.67578125 129.45703125 C4.7899265 122.54216092 1.83340503 112.35803257 0.26889038 101.59222412 C-0.77890066 91.49104755 -0.29288531 81.20136211 -0.1875 71.0625 C-0.17242435 68.52930484 -0.15874105 65.99610099 -0.14648438 63.46289062 C-0.11371109 57.30837608 -0.06208732 51.15428577 0 45 C-3.96 45 -7.92 45 -12 45 C-12 37.74 -12 30.48 -12 23 C-8.04 23 -4.08 23 0 23 C0 15.41 0 7.82 0 0 Z " fill="#0D016B" transform="translate(654,151)"/>
<path d="M0 0 C5.17979885 0.50882111 8.9079708 3.14074876 13.1875 5.875 C14.27321289 6.54595703 14.27321289 6.54595703 15.38085938 7.23046875 C18.73526333 9.34608353 20.75538772 10.63308158 23 14 C22.34 14 21.68 14 21 14 C20.7421875 15.29164063 20.484375 16.58328125 20.21875 17.9140625 C14.39495499 43.98878109 -1.53164497 73.48899737 -24.3828125 88.25 C-41.96160451 99.03477383 -62.68028177 102.28086128 -83 99 C-87.30700366 97.79152535 -91.06688121 96.11170343 -95 94 C-95.94230469 93.53207031 -96.88460937 93.06414062 -97.85546875 92.58203125 C-109.85227125 86.4098832 -116.86860423 79.21129595 -124 68 C-122.63016497 64.83884224 -122.0109362 64.0072908 -119 62 C-118.319375 61.29875 -117.63875 60.5975 -116.9375 59.875 C-115 58 -115 58 -113 58 C-112.01 57.34 -111.02 56.68 -110 56 C-108.68 56 -107.36 56 -106 56 C-105.34 55.34 -104.68 54.68 -104 54 C-104 54.66 -104 55.32 -104 56 C-103.01 56 -102.02 56 -101 56 C-99.7109375 57.50390625 -99.7109375 57.50390625 -98.375 59.5625 C-91.8775794 68.53815438 -83.85857652 72.98203445 -73 75 C-58.23010422 76.3427178 -44.97377693 73.34944342 -33.3671875 63.84375 C-26.84355824 57.69916953 -22.30617039 50.81456606 -18 43 C-17.43925781 42.01257813 -16.87851563 41.02515625 -16.30078125 40.0078125 C-10.25693176 28.70905425 -6.22788942 16.52027414 -1.92041016 4.48339844 C-1 2 -1 2 0 0 Z " fill="#1E007C" transform="translate(133,211)"/>
<path d="M0 0 C8.58 0 17.16 0 26 0 C26 50.49 26 100.98 26 153 C17.42 153 8.84 153 0 153 C0 102.51 0 52.02 0 0 Z " fill="#0D006A" transform="translate(564,132)"/>
<path d="M0 0 C8.58 0 17.16 0 26 0 C26 36.63 26 73.26 26 111 C17.42 111 8.84 111 0 111 C0 74.37 0 37.74 0 0 Z " fill="#0D006B" transform="translate(608,174)"/>
<path d="M0 0 C0.33 0.66 0.66 1.32 1 2 C1.99 2 2.98 2 4 2 C5.2890625 3.50390625 5.2890625 3.50390625 6.625 5.5625 C13.11360627 14.5259781 21.14501103 19.00671663 32 21 C39.97222055 21.57650355 47.89290178 21.08441071 55.828125 20.21875 C58 20 58 20 61 20 C63.01132521 22.6301945 63.93792441 24.59207472 64.4375 27.875 C65.16524604 31.91803355 66.90109632 34.47925835 69 38 C69 38.66 69 39.32 69 40 C54.07293747 46.64141443 34.38662445 48.47548385 18.51953125 44.0234375 C15.56438252 42.83831964 12.80413563 41.50554894 10 40 C9.05769531 39.53207031 8.11539063 39.06414062 7.14453125 38.58203125 C-4.85227125 32.4098832 -11.86860423 25.21129595 -19 14 C-17.63016497 10.83884224 -17.0109362 10.0072908 -14 8 C-12.9790625 6.948125 -12.9790625 6.948125 -11.9375 5.875 C-10 4 -10 4 -8 4 C-7.01 3.34 -6.02 2.68 -5 2 C-3.68 2 -2.36 2 -1 2 C-0.67 1.34 -0.34 0.68 0 0 Z " fill="#CC0DD8" transform="translate(28,265)"/>
<path d="M0 0 C27.05744606 5.40023871 55.70606429 28.43449686 72 50 C72.96439977 52.59646093 73 54.19144202 73 57 C72.34 57 71.68 57 71 57 C71 57.66 71 58.32 71 59 C70.34 59 69.68 59 69 59 C69 59.66 69 60.32 69 61 C68.34 61 67.68 61 67 61 C66.505 61.99 66.505 61.99 66 63 C61.47218267 63 59.20624317 61.57350032 55.9375 58.5 C53.4944855 56.21172538 52.21948729 55.07316243 49 54 C47.81455916 52.8484289 46.63377868 51.6915617 45.48046875 50.5078125 C30.54660586 35.29812629 10.09033786 27.09527216 -10 21 C-8.68 20.34 -7.36 19.68 -6 19 C-6 18.34 -6 17.68 -6 17 C-5.67 16.34 -5.34 15.68 -5 15 C-4.814375 14.1646875 -4.814375 14.1646875 -4.625 13.3125 C-3.74327853 10.05013056 -2.36682494 7.09021292 -1 4 C-0.01 4 0.98 4 2 4 C2 3.34 2 2.68 2 2 C1.34 2 0.68 2 0 2 C0 1.34 0 0.68 0 0 Z " fill="#FD5D0D" transform="translate(115,179)"/>
<path d="M0 0 C5.17979885 0.50882111 8.9079708 3.14074876 13.1875 5.875 C13.91130859 6.32230469 14.63511719 6.76960937 15.38085938 7.23046875 C18.73526333 9.34608353 20.75538772 10.63308158 23 14 C22.34 14 21.68 14 21 14 C20.62101562 15.92392578 20.62101562 15.92392578 20.234375 17.88671875 C19.07486163 23.08927215 17.27078104 27.89042746 15.25 32.8125 C14.89873047 33.68036133 14.54746094 34.54822266 14.18554688 35.44238281 C11.44039782 42.13586331 8.42224048 48.6221882 5 55 C1.53624812 53.68320176 -1.05458362 52.2344538 -4 50 C-4.66 50 -5.32 50 -6 50 C-6.66 49.34 -7.32 48.68 -8 48 C-8.66 47.67 -9.32 47.34 -10 47 C-10.639375 46.484375 -11.27875 45.96875 -11.9375 45.4375 C-13.99119522 43.71410367 -13.99119522 43.71410367 -17 44 C-16.36964007 41.22957195 -15.53385406 38.72370443 -14.3984375 36.12109375 C-14.07625244 35.37335693 -13.75406738 34.62562012 -13.42211914 33.85522461 C-13.07656982 33.05737549 -12.73102051 32.25952637 -12.375 31.4375 C-8.74232886 22.95079299 -5.47789416 14.3664321 -2.34765625 5.68359375 C-1 2 -1 2 0 0 Z " fill="#0E016B" transform="translate(133,211)"/>
<path d="M0 0 C5.78565632 -0.33060893 9.55595403 1.37892551 14 5 C15.32 4.01 16.64 3.02 18 2 C18.66 2.66 19.32 3.32 20 4 C20.66 4 21.32 4 22 4 C22.33 4.66 22.66 5.32 23 6 C23.99 6 24.98 6 26 6 C25.76216797 6.77537109 25.76216797 6.77537109 25.51953125 7.56640625 C23.46890039 17.17199292 24.89417706 26.36793731 28.125 35.48828125 C29 38 29 38 29 40 C28.01 40 27.02 40 26 40 C25.34 40.66 24.68 41.32 24 42 C23.0409375 41.7215625 23.0409375 41.7215625 22.0625 41.4375 C21.381875 41.293125 20.70125 41.14875 20 41 C18.41666667 42.41666667 18.41666667 42.41666667 17 44 C16.01 44 15.02 44 14 44 C13.7525 44.804375 13.505 45.60875 13.25 46.4375 C12 49 12 49 10 49.75 C9.34 49.8325 8.68 49.915 8 50 C7.01 50.495 7.01 50.495 6 51 C6 50.34 6 49.68 6 49 C5.34 48.67 4.68 48.34 4 48 C3.0554195 45.58705293 2.21971464 43.21502063 1.4375 40.75 C1.21642578 40.08097656 0.99535156 39.41195312 0.76757812 38.72265625 C-1.4673225 31.84915523 -2.18188762 25.92262371 -2.1875 18.75 C-2.19974609 17.94175781 -2.21199219 17.13351563 -2.22460938 16.30078125 C-2.23823225 10.62458268 -1.45318374 5.48340155 0 0 Z " fill="#FD863D" transform="translate(2,227)"/>
<path d="M0 0 C3.6858627 2.11869845 6.20294583 4.71778242 8.4375 8.3125 C9.60557242 13.89329045 9.60234775 18.35723342 7.625 23.75 C4.63973844 28.2542639 0.09635721 30.54603927 -5 32 C-10.16715561 32.15098831 -13.94325425 30.35648836 -17.9375 27.1875 C-21.39490782 23.85014106 -22.90153612 21.36677982 -23.10546875 16.46484375 C-23.12299904 13.97203702 -23.08706836 11.49112261 -23 9 C-22.34 9 -21.68 9 -21 9 C-20.79375 8.2575 -20.5875 7.515 -20.375 6.75 C-16.36167366 -1.27665268 -7.80105382 -1.9266239 0 0 Z " fill="#0D016B" transform="translate(628,134)"/>
<path d="M0 0 C2.43424457 2.58638486 2.90776326 4.39387288 3.4375 7.875 C4.16524604 11.91803355 5.90109632 14.47925835 8 18 C8 18.66 8 19.32 8 20 C1.48847486 22.89713645 -4.83375531 24.48233277 -11.875 25.3125 C-12.60001709 25.40063965 -13.32503418 25.4887793 -14.07202148 25.57958984 C-17.91028448 25.98240072 -21.29526228 26.16883792 -25 25 C-27 23 -27 23 -27.0625 19.4375 C-27.04316406 18.73109375 -27.02382813 18.0246875 -27.00390625 17.296875 C-26.99855884 14.15259867 -27.38425705 11.09576065 -27.78125 7.98046875 C-28 6 -28 6 -28 3 C-27.13117187 2.95101563 -26.26234375 2.90203125 -25.3671875 2.8515625 C-24.21476562 2.77679688 -23.06234375 2.70203125 -21.875 2.625 C-20.16957031 2.52058594 -20.16957031 2.52058594 -18.4296875 2.4140625 C-11.94301927 1.63093399 -6.68455948 -1.27387479 0 0 Z " fill="#B202DF" transform="translate(89,285)"/>
<path d="M0 0 C25.41634241 2.13477184 25.41634241 2.13477184 32 5 C32.495 6.485 32.495 6.485 33 8 C33.66 8 34.32 8 35 8 C35 8.66 35 9.32 35 10 C34.01 10 33.02 10 32 10 C31.87882812 10.68707031 31.75765625 11.37414062 31.6328125 12.08203125 C31.46523437 12.98308594 31.29765625 13.88414062 31.125 14.8125 C30.96257812 15.70582031 30.80015625 16.59914062 30.6328125 17.51953125 C30 20 30 20 28 23 C28 23.99 28 24.98 28 26 C23.64505134 26.96776637 20.43146339 27.00624889 16.0625 26.0625 C8.73785432 24.53823714 1.44077289 24.83195243 -6 25 C-6 24.34 -6 23.68 -6 23 C-2.7 22.67 0.6 22.34 4 22 C3.81695312 21.29101562 3.63390625 20.58203125 3.4453125 19.8515625 C2.95630532 16.72020074 3.25236184 14.47113223 3.875 11.375 C4.05804688 10.43398437 4.24109375 9.49296875 4.4296875 8.5234375 C5 6 5 6 6 3 C5.67 3.66 5.34 4.32 5 5 C3.68 4.67 2.36 4.34 1 4 C0.67 2.68 0.34 1.36 0 0 Z " fill="#FD8407" transform="translate(82,173)"/>
<path d="M0 0 C0.33 0.66 0.66 1.32 1 2 C1.99 2 2.98 2 4 2 C5.5 3.64453125 5.5 3.64453125 7 5.8125 C8.45934946 7.89891368 9.81665509 9.81797729 11.625 11.61328125 C13.6880095 13.69387322 14 15.08662644 14 18 C11.5625 20.6875 11.5625 20.6875 9 23 C9 23.66 9 24.32 9 25 C8.34 25 7.68 25 7 25 C6.67 25.66 6.34 26.32 6 27 C2.41025641 32.86324786 2.41025641 32.86324786 -1 34 C-9.3505849 29.80793931 -14.15857245 21.61122771 -19 14 C-17.63016497 10.83884224 -17.0109362 10.0072908 -14 8 C-12.9790625 6.948125 -12.9790625 6.948125 -11.9375 5.875 C-10 4 -10 4 -8 4 C-7.01 3.34 -6.02 2.68 -5 2 C-3.68 2 -2.36 2 -1 2 C-0.67 1.34 -0.34 0.68 0 0 Z " fill="#F2488F" transform="translate(28,265)"/>
<path d="M0 0 C0.61875 0.350625 1.2375 0.70125 1.875 1.0625 C2.57625 1.371875 3.2775 1.68125 4 2 C4.66 1.67 5.32 1.34 6 1 C6.3403125 1.8353125 6.3403125 1.8353125 6.6875 2.6875 C8.79892909 6.40763697 11.68762038 9.18419645 15.3125 11.4375 C17 13 17 13 17.37109375 15.84765625 C17 19 17 19 15.234375 21.125 C8.83976371 25.95112173 2.29614044 29.69041052 -5 33 C-6.01303762 31.27843904 -7.00994848 29.54738194 -8 27.8125 C-8.8353125 26.36810547 -8.8353125 26.36810547 -9.6875 24.89453125 C-11.02216758 21.95111257 -11.27915461 20.18119943 -11 17 C-13.8424854 15.42726432 -13.8424854 15.42726432 -17 15 C-17.33 14.01 -17.66 13.02 -18 12 C-17.11957031 11.55269531 -16.23914063 11.10539062 -15.33203125 10.64453125 C-14.17058594 10.03996094 -13.00914063 9.43539063 -11.8125 8.8125 C-10.08966797 7.92498047 -10.08966797 7.92498047 -8.33203125 7.01953125 C-4.89608408 4.93701697 -2.69054746 2.93376079 0 0 Z " fill="#6B00BF" transform="translate(102,272)"/>
<path d="M0 0 C3.17773918 0.57858957 4.80391177 1.43294597 7.05859375 3.73046875 C7.88520508 4.56481445 7.88520508 4.56481445 8.72851562 5.41601562 C9.29248047 6.00060547 9.85644531 6.58519531 10.4375 7.1875 C10.99759766 7.75275391 11.55769531 8.31800781 12.13476562 8.90039062 C23 19.96847652 23 19.96847652 23 27 C22.34 27 21.68 27 21 27 C21 27.66 21 28.32 21 29 C20.34 29 19.68 29 19 29 C19 29.66 19 30.32 19 31 C18.34 31 17.68 31 17 31 C16.67 31.66 16.34 32.32 16 33 C11.47218267 33 9.20624317 31.57350032 5.9375 28.5 C3.4944855 26.21172538 2.21948729 25.07316243 -1 24 C-2.68997323 22.35697047 -4.35216394 20.68528688 -6 19 C-8.30140597 16.96174856 -10.64450427 14.97535809 -13 13 C-12.34 12.01 -11.68 11.02 -11 10 C-10.01 10 -9.02 10 -8 10 C-5.83023454 8.17739702 -4.59459332 6.39188999 -3 4 C-2.00612666 2.66209359 -1.0073108 1.32781878 0 0 Z " fill="#DA451D" transform="translate(165,209)"/>
<path d="M0 0 C2 2 2 2 3 4 C3.99 3.34 4.98 2.68 6 2 C6.66 2.33 7.32 2.66 8 3 C7.34 3.99 6.68 4.98 6 6 C6.33 6.66 6.66 7.32 7 8 C6.34 8 5.68 8 5 8 C4.80551523 10.12437212 4.61961711 12.24953191 4.4375 14.375 C4.33308594 15.55835938 4.22867188 16.74171875 4.12109375 17.9609375 C3.75846404 20.91898631 3.75846404 20.91898631 5 23 C2.5 23.3125 0 23.625 -2.5 23.9375 C-3.19609375 24.02451172 -3.8921875 24.11152344 -4.609375 24.20117188 C-7.51171875 24.56396484 -10.4140625 24.92675781 -13.31640625 25.28955078 C-14.04730469 25.38091309 -14.77820313 25.47227539 -15.53125 25.56640625 C-17.24828125 25.78103516 -17.24828125 25.78103516 -19 26 C-19.11069824 25.3387915 -19.22139648 24.67758301 -19.33544922 23.99633789 C-19.8395191 21.0167656 -20.35706769 18.03969247 -20.875 15.0625 C-21.04902344 14.02158203 -21.22304688 12.98066406 -21.40234375 11.90820312 C-21.57636719 10.91884766 -21.75039063 9.92949219 -21.9296875 8.91015625 C-22.08679199 7.99371338 -22.24389648 7.07727051 -22.40576172 6.13305664 C-22.69990967 5.0771936 -22.69990967 5.0771936 -23 4 C-23.66 3.67 -24.32 3.34 -25 3 C-22.3347536 2.49118023 -19.66821581 1.99279859 -17 1.5 C-15.88431641 1.28537109 -15.88431641 1.28537109 -14.74609375 1.06640625 C-9.75039702 0.15414859 -5.08074603 -0.31197563 0 0 Z " fill="#FE9403" transform="translate(82,173)"/>
<path d="M0 0 C1.65 0 3.3 0 5 0 C7.14328358 6.29304541 9.12275039 12.62267685 11 19 C10.01 19 9.02 19 8 19 C7.34 19.66 6.68 20.32 6 21 C5.360625 20.814375 4.72125 20.62875 4.0625 20.4375 C3.0415625 20.2209375 3.0415625 20.2209375 2 20 C0.41666667 21.41666667 0.41666667 21.41666667 -1 23 C-1.99 23 -2.98 23 -4 23 C-4.2475 23.804375 -4.495 24.60875 -4.75 25.4375 C-6 28 -6 28 -8 28.75 C-8.66 28.8325 -9.32 28.915 -10 29 C-10.66 29.33 -11.32 29.66 -12 30 C-12 29.34 -12 28.68 -12 28 C-12.66 27.67 -13.32 27.34 -14 27 C-14.94688837 24.60770571 -15.78122261 22.25833871 -16.5625 19.8125 C-16.78357422 19.15185547 -17.00464844 18.49121094 -17.23242188 17.81054688 C-18.51099891 13.89756036 -19.43576516 10.07643824 -20 6 C-16.38026598 4.68373308 -13.90432869 4 -10 4 C-9.34 3.34 -8.68 2.68 -8 2 C-5.31160615 1.73008094 -2.70858064 1.91262643 0 2 C0 1.34 0 0.68 0 0 Z " fill="#FB7355" transform="translate(20,248)"/>
<path d="M0 0 C2 3 2 3 3 6 C3.86625 5.6596875 3.86625 5.6596875 4.75 5.3125 C7 5 7 5 8.9375 6.375 C9.9584375 7.179375 9.9584375 7.179375 11 8 C12.66500443 8.34153937 14.33178677 8.67449498 16 9 C18.8125 10.5625 18.8125 10.5625 21 12 C19.16508812 16.74018901 17.08058541 21.36413251 15 26 C14.34 26 13.68 26 13 26 C12.67 26.66 12.34 27.32 12 28 C11.2575 27.835 10.515 27.67 9.75 27.5 C6.80993422 26.88074304 6.80993422 26.88074304 3 27 C1.33032028 26.3409159 -0.33607955 25.67349161 -2 25 C-3.99673484 24.64763503 -5.99650739 24.31165441 -8 24 C-8.66 23.67 -9.32 23.34 -10 23 C-9.5643921 16.84023199 -8.22955346 12.78511705 -5 7.5625 C-4.63132812 6.93923828 -4.26265625 6.31597656 -3.8828125 5.67382812 C-1.23732311 1.23732311 -1.23732311 1.23732311 0 0 Z " fill="#FEAE06" transform="translate(13,206)"/>
<path d="M0 0 C5.77562795 2.83557962 10.91224645 6.27903639 16 10.1875 C16.57580811 10.62755371 17.15161621 11.06760742 17.74487305 11.52099609 C21.86983084 14.73966168 21.86983084 14.73966168 23 17 C20.48756923 22.16444104 16.74133619 25.83910921 12 29 C8.1600039 29 7.4365839 28.96100676 4.43359375 27.1015625 C3.78326172 26.70453125 3.13292969 26.3075 2.46289062 25.8984375 C1.79451172 25.47820312 1.12613281 25.05796875 0.4375 24.625 C-0.23474609 24.2125 -0.90699219 23.8 -1.59960938 23.375 C-4.43471818 21.62945138 -7.22930624 19.84712918 -10 18 C-8.33333333 16.33333333 -6.66666667 14.66666667 -5 13 C-3.09610151 10.14415227 -2.30537823 8.0688238 -1.375 4.8125 C-1.11460937 3.91144531 -0.85421875 3.01039063 -0.5859375 2.08203125 C-0.39257812 1.39496094 -0.19921875 0.70789063 0 0 Z " fill="#F94E0E" transform="translate(143,192)"/>
<path d="M0 0 C4.74018901 1.83491188 9.36413251 3.91941459 14 6 C13.01 6.495 13.01 6.495 12 7 C11.67 7.66 11.34 8.32 11 9 C10.01 10.485 10.01 10.485 9 12 C6.617366 16.26187706 6.617366 16.26187706 6 21 C5.04346365 23.3514852 4.04718798 25.68745988 3 28 C-2.4556837 25.87594923 -7.81634671 23.72823857 -13 21 C-12.41883429 17.62923887 -11.47583979 16.29899409 -9 14 C-7.31267723 12.01739574 -5.64633943 10.0167658 -4 8 C-3.4225 7.29875 -2.845 6.5975 -2.25 5.875 C-0.93792057 3.90688086 -0.41340392 2.31506197 0 0 Z " fill="#DE1EC5" transform="translate(41,279)"/>
<path d="M0 0 C2.43424457 2.58638486 2.90776326 4.39387288 3.4375 7.875 C4.16524604 11.91803355 5.90109632 14.47925835 8 18 C8 18.66 8 19.32 8 20 C-3.52164009 24.40774487 -3.52164009 24.40774487 -9 25 C-9.88243604 21.24964684 -10 17.84075016 -10 14 C-10.343215 10.48204622 -10.85919039 9.17394129 -13.125 6.375 C-13.74375 5.59125 -14.3625 4.8075 -15 4 C-14.67 3.01 -14.34 2.02 -14 1 C-9.44412133 -0.17571062 -4.66406155 -0.79235023 0 0 Z " fill="#8F00D3" transform="translate(89,285)"/>
<path d="M0 0 C3.25047681 -0.36116409 4.58761061 -0.30929204 7.25 1.6875 C9.25478518 4.33668042 10.08143115 5.66132266 10 9 C7.5625 11.6875 7.5625 11.6875 5 14 C5 14.66 5 15.32 5 16 C4.34 16 3.68 16 3 16 C2.67 16.66 2.34 17.32 2 18 C-1.58974359 23.86324786 -1.58974359 23.86324786 -5 25 C-7.2265625 23.70703125 -7.2265625 23.70703125 -9.625 21.8125 C-10.42164063 21.20019531 -11.21828125 20.58789062 -12.0390625 19.95703125 C-14.11605679 17.8841744 -14.848201 16.91337316 -15 14 C-12.60574302 10.40861453 -10.66153409 9.71208604 -6.8125 8.0625 C-4.65604893 7.06565448 -4.65604893 7.06565448 -4 4 C-3.34 4 -2.68 4 -2 4 C-1.67 3.34 -1.34 2.68 -1 2 C-0.67 1.34 -0.34 0.68 0 0 Z " fill="#EC36A7" transform="translate(32,274)"/>
<path d="M0 0 C1.26972656 0.25265625 2.53945312 0.5053125 3.84765625 0.765625 C4.86730469 1.09046875 5.88695313 1.4153125 6.9375 1.75 C7.2675 2.74 7.5975 3.73 7.9375 4.75 C8.5975 4.75 9.2575 4.75 9.9375 4.75 C9.9375 5.41 9.9375 6.07 9.9375 6.75 C8.9475 6.75 7.9575 6.75 6.9375 6.75 C6.81632812 7.43707031 6.69515625 8.12414062 6.5703125 8.83203125 C6.40273437 9.73308594 6.23515625 10.63414062 6.0625 11.5625 C5.90007812 12.45582031 5.73765625 13.34914062 5.5703125 14.26953125 C4.9375 16.75 4.9375 16.75 2.9375 19.75 C2.9375 20.74 2.9375 21.73 2.9375 22.75 C-2.09761899 23.7570238 -5.30197038 23.72387813 -10.0625 21.75 C-9.546875 20.986875 -9.03125 20.22375 -8.5 19.4375 C-7.7884375 18.1071875 -7.7884375 18.1071875 -7.0625 16.75 C-7.3925 15.76 -7.7225 14.77 -8.0625 13.75 C-7.876875 12.6775 -7.69125 11.605 -7.5 10.5 C-6.99195657 6.145342 -7.64624987 3.83213273 -9.0625 -0.25 C-5.9186677 -1.82191615 -3.37920316 -0.70127919 0 0 Z " fill="#FE7308" transform="translate(107.0625,176.25)"/>
<path d="M0 0 C4.24426822 0.49028616 6.01792037 1.55455549 8.75 4.8125 C9.63945312 5.84310547 9.63945312 5.84310547 10.546875 6.89453125 C12.69336111 10.00462806 13 12.25621302 13 16 C12.34 16 11.68 16 11 16 C11 16.66 11 17.32 11 18 C10.34 18 9.68 18 9 18 C9 18.66 9 19.32 9 20 C8.34 20 7.68 20 7 20 C6.67 20.66 6.34 21.32 6 22 C1.47218267 22 -0.79375683 20.57350032 -4.0625 17.5 C-6.5055145 15.21172538 -7.78051271 14.07316243 -11 13 C-10.67 12.34 -10.34 11.68 -10 11 C-9.34 11 -8.68 11 -8 11 C-7.34 10.01 -6.68 9.02 -6 8 C-5.34 8 -4.68 8 -4 8 C-3.896875 7.4225 -3.79375 6.845 -3.6875 6.25 C-2.90207202 3.67950842 -1.69495803 2.06342716 0 0 Z " fill="#8B293A" transform="translate(175,220)"/>
<path d="M0 0 C0.66 0.66 1.32 1.32 2 2 C1.65324219 2.56976563 1.30648437 3.13953125 0.94921875 3.7265625 C-0.18995776 6.45496057 0.04711265 7.56034976 0.8125 10.375 C1.50832821 13.08248539 2.10975612 15.67073186 2.5625 18.4375 C2.86895919 20.97983988 2.86895919 20.97983988 4 23 C-0.29 23.66 -4.58 24.32 -9 25 C-9.26554687 23.42347656 -9.53109375 21.84695312 -9.8046875 20.22265625 C-10.1609966 18.16919066 -10.51779255 16.11580951 -10.875 14.0625 C-11.04902344 13.02158203 -11.22304688 11.98066406 -11.40234375 10.90820312 C-11.57636719 9.91884766 -11.75039063 8.92949219 -11.9296875 7.91015625 C-12.08679199 6.99371338 -12.24389648 6.07727051 -12.40576172 5.13305664 C-12.69990967 4.0771936 -12.69990967 4.0771936 -13 3 C-13.66 2.67 -14.32 2.34 -15 2 C-5.00312891 -0.48811014 -5.00312891 -0.48811014 0 0 Z " fill="#FEA20B" transform="translate(72,174)"/>
<path d="M0 0 C0.61875 0.350625 1.2375 0.70125 1.875 1.0625 C2.57625 1.371875 3.2775 1.68125 4 2 C4.66 1.67 5.32 1.34 6 1 C6.3403125 1.8353125 6.3403125 1.8353125 6.6875 2.6875 C8.79892909 6.40763697 11.68762038 9.18419645 15.3125 11.4375 C17 13 17 13 17.8125 15.75 C16.50935365 20.96258541 12.31299249 23.10755662 8 26 C5.61100419 23.61100419 4.49962724 20.99925447 3 18 C2.34 18 1.68 18 1 18 C0.67 16.68 0.34 15.36 0 14 C-0.66 14 -1.32 14 -2 14 C-2.185625 13.13375 -2.185625 13.13375 -2.375 12.25 C-3.00648824 9.97664233 -3.88858191 8.0746471 -5 6 C-3.35 4.02 -1.7 2.04 0 0 Z " fill="#4D00A7" transform="translate(102,272)"/>
<path d="M0 0 C1.03647024 1.30518475 2.04422943 2.63461347 3 4 C5.59855733 4.8042208 5.59855733 4.8042208 8 5 C7.01 5.495 7.01 5.495 6 6 C6.4125 6.515625 6.825 7.03125 7.25 7.5625 C8 10 8 10 6.4375 13.5 C4.42856333 16.6882442 2.10992134 18.84033241 -1 21 C-3.98101727 19.21138964 -4.89724576 18.31468487 -6 14.9375 C-6.67249275 11.89150522 -6.67249275 11.89150522 -9 10.875 C-9.99 10.441875 -9.99 10.441875 -11 10 C-11.70151152 8.6846659 -12.36525925 7.34882408 -13 6 C-14.29470975 4.62913085 -15.62150897 3.28659163 -17 2 C-15.34151823 0.98648336 -13.67334039 -0.01120795 -12 -1 C-11.401875 -1.45375 -10.80375 -1.9075 -10.1875 -2.375 C-6.47678625 -3.43520393 -3.28695521 -1.8057093 0 0 Z " fill="#340092" transform="translate(120,269)"/>
<path d="M0 0 C5.78565632 -0.33060893 9.55595403 1.37892551 14 5 C15.32 4.01 16.64 3.02 18 2 C18.66 2.66 19.32 3.32 20 4 C20.66 4 21.32 4 22 4 C22.33 4.66 22.66 5.32 23 6 C23.99 6 24.98 6 26 6 C25.34 9.3 24.68 12.6 24 16 C23.236875 15.67 22.47375 15.34 21.6875 15 C16.80289421 13.67536114 12.03606693 13.46239788 7 14 C6.01 14.66 5.02 15.32 4 16 C2.68 15.34 1.36 14.68 0 14 C-0.33 16.31 -0.66 18.62 -1 21 C-1.33 21 -1.66 21 -2 21 C-2.22424141 13.63740707 -1.90120099 7.12950371 0 0 Z " fill="#FE9626" transform="translate(2,227)"/>
<path d="M0 0 C0.66 1.32 1.32 2.64 2 4 C2.66 4 3.32 4 4 4 C4.66 6.31 5.32 8.62 6 11 C5.01 11 4.02 11 3 11 C2.34 11.66 1.68 12.32 1 13 C0.360625 12.814375 -0.27875 12.62875 -0.9375 12.4375 C-1.9584375 12.2209375 -1.9584375 12.2209375 -3 12 C-4.58333333 13.41666667 -4.58333333 13.41666667 -6 15 C-6.99 15 -7.98 15 -9 15 C-9.2475 15.804375 -9.495 16.60875 -9.75 17.4375 C-11 20 -11 20 -13 20.75 C-13.66 20.8325 -14.32 20.915 -15 21 C-15.66 21.33 -16.32 21.66 -17 22 C-17 21.34 -17 20.68 -17 20 C-17.66 19.67 -18.32 19.34 -19 19 C-20.55203911 15.3241179 -21.46534385 12.80989402 -20 9 C-19.1028125 8.87625 -19.1028125 8.87625 -18.1875 8.75 C-15.4033704 7.79544128 -14.56688858 6.42867729 -13 4 C-12.67 4.33 -12.34 4.66 -12 5 C-11.34 4.34 -10.68 3.68 -10 3 C-9.34 3.66 -8.68 4.32 -8 5 C-4.9254644 4.2236068 -4.9254644 4.2236068 -3 2 C-2.01 2 -1.02 2 0 2 C0 1.34 0 0.68 0 0 Z " fill="#F8606F" transform="translate(25,256)"/>
<path d="M0 0 C1.20628008 2.33214148 2.1654738 4.49642139 3 7 C3.99 6.67 4.98 6.34 6 6 C6.33 5.34 6.66 4.68 7 4 C7.99 4.99 8.98 5.98 10 7 C10.66 6.01 11.32 5.02 12 4 C12.33 4.99 12.66 5.98 13 7 C13.66 6.67 14.32 6.34 15 6 C15 6.66 15 7.32 15 8 C18.91063224 9.47047336 18.91063224 9.47047336 23 10 C22.34 12.31 21.68 14.62 21 17 C20.34 17 19.68 17 19 17 C18.67 17.66 18.34 18.32 18 19 C17.2575 18.835 16.515 18.67 15.75 18.5 C12.80993422 17.88074304 12.80993422 17.88074304 9 18 C7.33032028 17.3409159 5.66392045 16.67349161 4 16 C2.00326516 15.64763503 0.00349261 15.31165441 -2 15 C-2.66 14.67 -3.32 14.34 -4 14 C-3.53328373 8.58609132 -2.75702189 4.79482068 0 0 Z " fill="#FDA30E" transform="translate(7,215)"/>
<path d="M0 0 C4.19813062 3.74427866 6.07776117 6.8403063 8 12 C6.78848458 13.20550294 5.55497111 14.38892747 4.3125 15.5625 C3.28576172 16.55443359 3.28576172 16.55443359 2.23828125 17.56640625 C0 19 0 19 -2.59375 18.90625 C-6.35769759 17.48865935 -7.62774705 15.18559683 -10 12 C-9.34 12 -8.68 12 -8 12 C-7.67 11.34 -7.34 10.68 -7 10 C-5.68 10 -4.36 10 -3 10 C-3 9.34 -3 8.68 -3 8 C-2.34 8 -1.68 8 -1 8 C-1 6.68 -1 5.36 -1 4 C-0.7018576 2.65835921 -0.37756808 1.32148827 0 0 Z " fill="#310C5C" transform="translate(187,230)"/>
<path d="M0 0 C2.375 0.1875 2.375 0.1875 5 1 C6.59660706 3.88909849 7 5.69058796 7 9 C6.34 9 5.68 9 5 9 C5 9.66 5 10.32 5 11 C4.34 11 3.68 11 3 11 C3 11.66 3 12.32 3 13 C2.34 13 1.68 13 1 13 C0.67 13.66 0.34 14.32 0 15 C-3.1090248 15 -5.26957283 14.52893002 -7.8125 12.6875 C-9 11 -9 11 -9 8.9375 C-8 7 -8 7 -5.625 6.0625 C-2.30805664 4.71992769 -1.56677835 3.1335567 0 0 Z " fill="#5E1B4A" transform="translate(181,227)"/>
<path d="M0 0 C3.24208567 0.35049575 4.61527704 0.56221181 6.8125 3.0625 C7.204375 3.701875 7.59625 4.34125 8 5 C7.38125 5.598125 6.7625 6.19625 6.125 6.8125 C3.86323046 9.00811144 3.86323046 9.00811144 2 12 C0.35305515 13.68615782 -1.31126121 15.35570171 -3 17 C-5.4375 16.3125 -5.4375 16.3125 -8 15 C-8.8125 12.375 -8.8125 12.375 -9 10 C-8.38125 9.731875 -7.7625 9.46375 -7.125 9.1875 C-4.7004767 8.04443152 -4.7004767 8.04443152 -3 5 C-2.34 4.67 -1.68 4.34 -1 4 C-0.34786708 1.97536745 -0.34786708 1.97536745 0 0 Z " fill="#C03B27" transform="translate(170,215)"/>
<path d="M0 0 C0.66 0.33 1.32 0.66 2 1 C0.89904638 4.30286086 0.3103981 4.78510901 -2.4375 6.6875 C-3.36369141 7.34298828 -3.36369141 7.34298828 -4.30859375 8.01171875 C-6 9 -6 9 -8 9 C-7.6875 6.625 -7.6875 6.625 -7 4 C-4 2 -4 2 -2 2 C-1.34 1.34 -0.68 0.68 0 0 Z M-10 7 C-9.01 8.32 -8.02 9.64 -7 11 C-8.65 11.66 -10.3 12.32 -12 13 C-12.33 12.01 -12.66 11.02 -13 10 C-12.01 9.01 -11.02 8.02 -10 7 Z " fill="#F75381" transform="translate(22,267)"/>
<path d="M0 0 C0.66 0.99 1.32 1.98 2 3 C1.175 3.78375 0.35 4.5675 -0.5 5.375 C-3.22988506 7.63721264 -3.22988506 7.63721264 -3 10 C-3.66 10 -4.32 10 -5 10 C-5.33 10.66 -5.66 11.32 -6 12 C-7.32405988 14.00615134 -8.65668346 16.00669158 -10 18 C-10.33 17.34 -10.66 16.68 -11 16 C-11.66 15.67 -12.32 15.34 -13 15 C-12.21625 14.2575 -11.4325 13.515 -10.625 12.75 C-8.02603885 10.29714924 -8.02603885 10.29714924 -7 8 C-5.55222541 5.10445083 -3.33058816 3.21107082 -1 1 C-0.67 0.67 -0.34 0.34 0 0 Z " fill="#E92AB9" transform="translate(40,280)"/>
<path d="M0 0 C0 0.99 0 1.98 0 3 C-2.5 5.1875 -2.5 5.1875 -5 7 C-5 5.02 -5 3.04 -5 1 C-3.35 0.67 -1.7 0.34 0 0 Z " fill="#2A0282" transform="translate(124,283)"/>
<path d="M0 0 C0.66 0 1.32 0 2 0 C2.66 1.65 3.32 3.3 4 5 C2.68 4.34 1.36 3.68 0 3 C0 2.01 0 1.02 0 0 Z M-1 5 C0.32 5.33 1.64 5.66 3 6 C2.34 6.66 1.68 7.32 1 8 C0.34 7.67 -0.32 7.34 -1 7 C-1 6.34 -1 5.68 -1 5 Z " fill="#DA18CC" transform="translate(42,299)"/>
<path d="M0 0 C0 3 0 3 -1.375 4.6875 C-3 6 -3 6 -5 6 C-5.33 5.01 -5.66 4.02 -6 3 C-4.02 2.01 -2.04 1.02 0 0 Z " fill="#6E04B4" transform="translate(90,281)"/>
</svg>
